<?xml version="1.0" standalone="no"?>
<!DOCTYPE svg PUBLIC "-//W3C//DTD SVG 1.1//EN" "http://www.w3.org/Graphics/SVG/1.1/DTD/svg11.dtd">
<svg xmlns="http://www.w3.org/2000/svg" height="512" viewBox="0 -11 512 512" width="512"><path d="m398.429688 436c55.832031-44.90625 91.574218-113.773438 91.574218-191 0-135.308594-109.691406-245-245.003906-245-54.730469 0-105.269531 17.953125-146.054688 48.285156v387.714844zm0 0" fill="#ffe600"/><path d="m98.945312 436v5.71875c40.785157 30.332031 91.320313 48.285156 146.054688 48.285156 58.085938 0 111.4375-20.226562 153.429688-54.003906zm0 0" fill="#f4b500"/><path d="m254.863281 436h-155.917969v5.71875c40.785157 30.332031 91.320313 48.285156 146.054688 48.285156 3.386719 0 6.753906-.078125 10.105469-.214844-24.984375-7.988281-24.460938-45.574218-.242188-53.789062zm0 0" fill="#ee9d00"/><path d="m410.578125 46.824219h-309.632813c-30.5625 22.257812-55.78125 51.40625-73.371093 85.164062v226.015625c6.195312 11.890625 13.328125 23.21875 21.3125 33.863282h361.691406c18.726563 0 33.957031-15.230469 33.957031-33.953126v-277.132812c0-18.722656-15.230468-33.957031-33.957031-33.957031zm0 0" fill="#6244bd"/><path d="m0 245c0 43.128906 11.15625 83.644531 30.722656 118.847656h379.859375c3.214844 0 5.929688-2.71875 5.929688-5.933594v-230.035156h-386.75c-18.976563 34.796875-29.761719 74.699219-29.761719 117.121094zm0 0" fill="#e6fcff"/><path d="m27.582031 357.914062v-225.925781c-17.613281 33.816407-27.582031 72.246094-27.582031 113.011719 0 40.769531 9.96875 79.203125 27.585938 113.019531 0-.035156-.003907-.070312-.003907-.105469zm0 0" fill="#ccebff"/><path d="m410.578125 74.851562h-341.835937c-15.785157 16.34375-29.308594 34.878907-40.085938 55.101563h387.855469v-49.171875c0-3.214844-2.714844-5.929688-5.933594-5.929688zm0 0" fill="#4e2aa5"/><path d="m452.460938 391.871094h-403.570313c14.691406 19.585937 32.253906 36.886718 52.054687 51.304687h319.132813c23.109375 0 41.84375-18.734375 41.84375-41.84375 0-5.226562-4.234375-9.460937-9.460937-9.460937zm0 0" fill="#e6fcff"/><path d="m65.113281 113.351562c-5.566406 0-10.378906-4.503906-10.378906-10.378906 0-6.597656 6.066406-11.457031 12.402344-10.183594 4.867187.988282 8.355469 5.203126 8.355469 10.183594 0 5.71875-4.660157 10.378906-10.378907 10.378906zm0 0" fill="#ffe600"/><path d="m102.644531 113.351562c-5.796875 0-10.378906-4.75-10.378906-10.378906 0-6.582031 6.054687-11.453125 12.410156-10.183594 4.894531 1.011719 8.347657 5.242188 8.347657 10.183594 0 5.78125-4.734376 10.378906-10.378907 10.378906zm0 0" fill="#a5c013"/><path d="m383.527344 110.753906h-55.523438c-4.300781 0-7.78125-3.484375-7.78125-7.785156 0-4.296875 3.484375-7.785156 7.78125-7.785156h55.523438c4.300781 0 7.785156 3.488281 7.785156 7.785156 0 4.300781-3.484375 7.785156-7.785156 7.785156zm0 0" fill="#6c55ce"/><path d="m254.144531 419.894531h-100.28125c-15.476562 0-28.023437-12.546875-28.023437-28.023437h156.328125c0 15.476562-12.546875 28.023437-28.023438 28.023437zm0 0" fill="#ccebff"/><path d="m162.457031 391.871094h-36.617187c0 15.476562 12.546875 28.023437 28.023437 28.023437h36.617188c-15.476563 0-28.023438-12.546875-28.023438-28.023437zm0 0" fill="#b8dff4"/><path d="m328.003906 110.753906h-15.054687c-4.296875 0-7.78125-3.484375-7.78125-7.785156 0-4.296875 3.484375-7.785156 7.78125-7.785156h15.054687c4.300782 0 7.785156 3.488281 7.785156 7.785156 0 4.300781-3.484374 7.785156-7.785156 7.785156zm0 0" fill="#6244bd"/><path d="m499.546875 417.523438h-166.066406c-6.851563 0-12.457031-5.605469-12.457031-12.457032v-206.894531c0-6.851563 5.605468-12.457031 12.457031-12.457031h166.066406c6.847656 0 12.453125 5.605468 12.453125 12.457031v206.898437c0 6.847657-5.605469 12.453126-12.453125 12.453126zm0 0" fill="#4e2aa5"/><path d="m373.476562 405.066406v-206.894531c0-6.851563 5.605469-12.457031 12.453126-12.457031h-52.449219c-6.847657 0-12.453125 5.605468-12.453125 12.457031v206.898437c0 6.847657 5.605468 12.453126 12.453125 12.453126h52.449219c-6.851563 0-12.453126-5.605469-12.453126-12.457032zm0 0" fill="#3a0f8d"/><path d="m371.371094 281.613281c-5.730469 0-10.378906-4.648437-10.378906-10.378906 0-30.613281 24.90625-55.519531 55.519531-55.519531 5.734375 0 10.378906 4.644531 10.378906 10.378906 0 5.730469-4.644531 10.378906-10.378906 10.378906-19.164063 0-34.757813 15.59375-34.757813 34.761719 0 5.730469-4.648437 10.378906-10.382812 10.378906zm0 0" fill="#f9ce00"/><path d="m387.800781 223.730469c-16.058593 9.742187-26.808593 27.390625-26.808593 47.503906 0 5.730469 4.648437 10.378906 10.378906 10.378906 5.734375 0 10.382812-4.648437 10.382812-10.378906 0-11.636719 5.75-21.949219 14.554688-28.261719-10.746094 1.179688-16.523438-12.167968-8.507813-19.242187zm0 0" fill="#f4b500"/><path d="m416.511719 326.75c-30.613281 0-55.519531-24.90625-55.519531-55.519531 0-5.730469 4.648437-10.378907 10.378906-10.378907 5.734375 0 10.382812 4.648438 10.382812 10.378907 0 19.167969 15.59375 34.761719 34.757813 34.761719 5.734375 0 10.378906 4.648437 10.378906 10.378906 0 5.734375-4.644531 10.378906-10.378906 10.378906zm0 0" fill="#ec3969"/><path d="m416.511719 326.75c-5.730469 0-10.378907-4.644531-10.378907-10.378906 0-5.730469 4.648438-10.378906 10.378907-10.378906 19.167969 0 34.761719-15.59375 34.761719-34.761719 0-5.730469 4.648437-10.378907 10.378906-10.378907 5.734375 0 10.378906 4.648438 10.378906 10.378907 0 30.617187-24.90625 55.519531-55.519531 55.519531zm0 0" fill="#51e0f4"/><path d="m461.652344 281.613281c-5.730469 0-10.378906-4.648437-10.378906-10.378906 0-19.167969-15.59375-34.761719-34.761719-34.761719-5.730469 0-10.378907-4.648437-10.378907-10.378906 0-5.734375 4.648438-10.378906 10.378907-10.378906 30.613281 0 55.519531 24.90625 55.519531 55.519531 0 5.730469-4.648438 10.378906-10.378906 10.378906zm0 0" fill="#a5c013"/><path d="m369.046875 365.796875c-4.292969 0-7.777344-3.476563-7.785156-7.769531-.011719-4.296875 3.464843-7.792969 7.765625-7.800782l94.9375-.214843h.015625c4.292969 0 7.773437 3.472656 7.785156 7.765625.007813 4.300781-3.46875 7.792968-7.769531 7.800781l-94.933594.21875c-.003906 0-.011719 0-.015625 0zm0 0" fill="#6c55ce"/><path d="m369.121094 395.308594c-4.289063 0-7.773438-3.472656-7.78125-7.765625-.011719-4.300781 3.464844-7.792969 7.765625-7.804688l71.902343-.160156h.015626c4.292968 0 7.773437 3.472656 7.785156 7.765625.007812 4.300781-3.46875 7.792969-7.769532 7.800781l-71.898437.164063zm0 0" fill="#6c55ce"/><path d="m401.496094 358.027344c-.011719-4.296875 3.46875-7.792969 7.765625-7.800782l55.832031-.125c-.363281-.054687-.734375-.089843-1.113281-.089843h-.015625l-94.9375.214843c-4.296875.011719-7.777344 3.503907-7.765625 7.800782.007812 4.296875 3.492187 7.769531 7.785156 7.769531h.015625l39.105469-.089844c-3.765625-.539062-6.664063-3.765625-6.671875-7.679687zm0 0" fill="#6244bd"/><path d="m408.015625 395.175781c-3.648437-.636719-6.433594-3.800781-6.441406-7.632812-.011719-3.847657 2.777343-7.039063 6.441406-7.679688v-.210937l-38.910156.085937c-4.300781.011719-7.777344 3.503907-7.765625 7.804688.007812 4.292969 3.492187 7.765625 7.78125 7.765625h.019531l38.875-.085938zm0 0" fill="#6244bd"/><path d="m80.84375 337.128906c-5.734375 0-10.378906-4.644531-10.378906-10.378906v-46.367188c0-5.734374 4.644531-10.378906 10.378906-10.378906 5.730469 0 10.378906 4.644532 10.378906 10.378906v46.371094c0 5.730469-4.648437 10.375-10.378906 10.375zm0 0" fill="#fe4675"/><path d="m132.738281 337.128906c-5.734375 0-10.378906-4.644531-10.378906-10.378906v-63.097656c0-5.734375 4.644531-10.378906 10.378906-10.378906 5.730469 0 10.378907 4.644531 10.378907 10.378906v63.101562c0 5.730469-4.648438 10.375-10.378907 10.375zm0 0" fill="#f9ce00"/><path d="m184.632812 337.128906c-5.730468 0-10.378906-4.644531-10.378906-10.378906v-92.851562c0-5.734376 4.648438-10.378907 10.378906-10.378907 5.730469 0 10.378907 4.644531 10.378907 10.378907v92.851562c0 5.734375-4.648438 10.378906-10.378907 10.378906zm0 0" fill="#a5c013"/><path d="m236.527344 337.128906c-5.730469 0-10.378906-4.644531-10.378906-10.378906v-134.714844c0-5.730468 4.648437-10.378906 10.378906-10.378906 5.734375 0 10.378906 4.648438 10.378906 10.378906v134.714844c0 5.734375-4.644531 10.378906-10.378906 10.378906zm0 0" fill="#51e0f4"/><path d="m80.84375 301.234375c-5.734375 0-10.378906-4.644531-10.378906-10.378906v35.894531c0 5.734375 4.644531 10.378906 10.378906 10.378906 5.730469 0 10.378906-4.644531 10.378906-10.378906v-35.894531c0 5.734375-4.648437 10.378906-10.378906 10.378906zm0 0" fill="#da2c5d"/><path d="m132.738281 301.234375c-5.734375 0-10.378906-4.644531-10.378906-10.378906v35.894531c0 5.734375 4.644531 10.378906 10.378906 10.378906 5.730469 0 10.378907-4.644531 10.378907-10.378906v-35.894531c0 5.734375-4.648438 10.378906-10.378907 10.378906zm0 0" fill="#f4b500"/><path d="m184.632812 301.234375c-5.730468 0-10.378906-4.644531-10.378906-10.378906v35.894531c0 5.734375 4.648438 10.378906 10.378906 10.378906 5.730469 0 10.378907-4.644531 10.378907-10.378906v-35.894531c0 5.734375-4.648438 10.378906-10.378907 10.378906zm0 0" fill="#8dae16"/><path d="m236.527344 301.234375c-5.730469 0-10.378906-4.644531-10.378906-10.378906v35.894531c0 5.734375 4.648437 10.378906 10.378906 10.378906 5.734375 0 10.378906-4.644531 10.378906-10.378906v-35.894531c0 5.734375-4.644531 10.378906-10.378906 10.378906zm0 0" fill="#15d4f0"/><g fill="#ccebff"><path d="m47.191406 190.546875c-4.292968 0-7.777344-3.476563-7.785156-7.769531-.011719-4.296875 3.464844-7.792969 7.765625-7.800782l67.304687-.152343h.019532c4.289062 0 7.773437 3.472656 7.78125 7.765625.011718 4.300781-3.464844 7.792968-7.765625 7.804687l-67.304688.152344c-.003906 0-.011719 0-.015625 0zm0 0"/><path d="m47.265625 223.496094c-4.292969 0-7.773437-3.472656-7.785156-7.765625-.007813-4.296875 3.46875-7.792969 7.765625-7.800781l50.976562-.117188h.015625c4.292969 0 7.777344 3.472656 7.785157 7.765625.011718 4.300781-3.464844 7.792969-7.765626 7.804687l-50.976562.113282s-.011719 0-.015625 0zm0 0"/><path d="m263.511719 337.128906h-209.65625c-4.296875 0-7.78125-3.484375-7.78125-7.78125 0-4.300781 3.484375-7.785156 7.78125-7.785156h209.660156c4.296875 0 7.78125 3.484375 7.78125 7.785156 0 4.296875-3.484375 7.78125-7.785156 7.78125zm0 0"/></g><path d="m112.070312 329.347656c0-4.300781 3.488282-7.785156 7.785157-7.785156h-66c-4.300781 0-7.785157 3.484375-7.785157 7.785156 0 4.296875 3.488282 7.78125 7.785157 7.78125h66c-4.296875 0-7.785157-3.484375-7.785157-7.78125zm0 0" fill="#b8dff4"/><path d="m53.855469 310.027344c-4.296875 0-7.78125-3.484375-7.78125-7.78125 0-4.300782 3.484375-7.785156 7.78125-7.785156 39.472656 0 79.207031-9.734376 114.910156-28.148438 36.171875-18.660156 66.699219-45.507812 88.285156-77.648438 2.398438-3.566406 7.234375-4.519531 10.804688-2.121093 3.566406 2.398437 4.515625 7.234375 2.121093 10.800781-23.046874 34.3125-55.578124 62.945312-94.074218 82.804688-37.664063 19.425781-79.578125 29.816406-122.046875 29.878906zm0 0" fill="#ccebff"/><path d="m121.140625 285.070312c-21.976563 6.191407-44.671875 9.390626-67.285156 9.390626-4.296875 0-7.78125 3.484374-7.78125 7.785156 0 4.296875 3.484375 7.78125 7.78125 7.78125 23.523437-.035156 46.613281-3.179688 69.308593-9.367188-7.78125-1.539062-9.148437-12.101562-2.023437-15.589844zm0 0" fill="#b8dff4"/><path d="m431.035156 302.800781c-4.421875 2.042969-9.339844 3.191407-14.523437 3.191407-5.730469 0-10.378907 4.648437-10.378907 10.378906 0 5.734375 4.648438 10.378906 10.378907 10.378906 8.605469 0 16.757812-1.96875 24.035156-5.476562-10.367187 1.378906-16.519531-10.996094-9.511719-18.472657zm0 0" fill="#15d4f0"/></svg>