<?xml version="1.0" standalone="no"?>
<!DOCTYPE svg PUBLIC "-//W3C//DTD SVG 1.1//EN" "http://www.w3.org/Graphics/SVG/1.1/DTD/svg11.dtd">
<svg xmlns="http://www.w3.org/2000/svg" height="512.0009765625" viewBox="-11 0 512 512.00099" width="512"><path d="m489.71875 267.140625c0 135.234375-109.625 244.859375-244.859375 244.859375-135.230469 0-244.859375-109.625-244.859375-244.859375 0-135.230469 109.628906-244.859375 244.859375-244.859375 135.234375 0 244.859375 109.628906 244.859375 244.859375zm0 0" fill="#ffb456"/><path d="m355.195312 0h-220.667968c-4.457032 0-8.066406 3.609375-8.066406 8.066406v36.496094h236.800781v-36.496094c0-4.453125-3.609375-8.066406-8.066407-8.066406zm0 0" fill="#d4d1da"/><path d="m192.121094 0h-57.59375c-4.457032 0-8.066406 3.609375-8.066406 8.066406v36.496094h57.59375v-36.496094c0-4.457031 3.613281-8.066406 8.066406-8.066406zm0 0" fill="#bcb7c6"/><path d="m462.570312 155.226562h-73.074218v309.492188c36.066406-26.449219 64.621094-62.527344 81.875-104.457031v-196.234375c0-4.859375-3.941406-8.800782-8.800782-8.800782zm0 0" fill="#5085fe"/><path d="m432.367188 171.414062c0-8.9375 7.25-16.1875 16.1875-16.1875h-59.058594v309.492188c15.847656-11.625 30.246094-25.105469 42.871094-40.125zm0 0" fill="#3c78ef"/><path d="m18.347656 164.027344v196.234375c17.257813 41.929687 45.8125 78.007812 81.875 104.457031v-309.492188h-73.070312c-4.863282 0-8.804688 3.941407-8.804688 8.800782zm0 0" fill="#5085fe"/><path d="m51.847656 180.601562c0-14.011718 11.363282-25.375 25.375-25.375h-50.070312c-4.863282 0-8.804688 3.941407-8.804688 8.800782v196.234375c8.550782 20.769531 19.871094 40.097656 33.5 57.535156zm0 0" fill="#3c78ef"/><g fill="#7da8ff"><path d="m423.757812 407.652344c-2.441406 0-4.425781 1.980468-4.425781 4.425781v18.039063c0 2.375 1.875 4.296874 4.222657 4.40625 7.890624-8.421876 15.195312-17.398438 21.847656-26.871094zm0 0"/><path d="m471.371094 353.863281h-47.613282c-2.441406 0-4.425781 1.984375-4.425781 4.425781v18.042969c0 2.445313 1.984375 4.425781 4.425781 4.425781h38.042969c3.492188-6.65625 6.6875-13.492187 9.570313-20.492187zm0 0"/><path d="m419.332031 196.933594v18.039062c0 2.445313 1.984375 4.425782 4.425781 4.425782h47.613282v-26.890626h-47.613282c-2.441406 0-4.425781 1.980469-4.425781 4.425782zm0 0"/><path d="m419.332031 304.503906v18.042969c0 2.441406 1.984375 4.425781 4.425781 4.425781h47.613282v-26.894531h-47.613282c-2.441406 0-4.425781 1.984375-4.425781 4.425781zm0 0"/><path d="m419.332031 250.71875v18.042969c0 2.441406 1.984375 4.425781 4.425781 4.425781h47.613282v-26.894531h-47.613282c-2.441406 0-4.425781 1.980469-4.425781 4.425781zm0 0"/></g><path d="m471.371094 353.863281h-20.390625c-2.441407 0-4.425781 1.984375-4.425781 4.425781v18.042969c0 2.445313 1.984374 4.425781 4.425781 4.425781h10.820312c3.492188-6.65625 6.6875-13.492187 9.570313-20.492187zm0 0" fill="#9dc2fc"/><path d="m450.980469 192.507812c-2.441407 0-4.425781 1.980469-4.425781 4.425782v18.042968c0 2.441407 1.984374 4.425782 4.425781 4.425782h20.390625v-26.894532zm0 0" fill="#9dc2fc"/><path d="m450.980469 300.078125c-2.441407 0-4.425781 1.980469-4.425781 4.425781v18.042969c0 2.441406 1.984374 4.425781 4.425781 4.425781h20.390625v-26.894531zm0 0" fill="#9dc2fc"/><path d="m450.980469 246.292969c-2.441407 0-4.425781 1.980469-4.425781 4.425781v18.042969c0 2.441406 1.984374 4.425781 4.425781 4.425781h20.390625v-26.894531zm0 0" fill="#9dc2fc"/><path d="m65.960938 407.652344h-21.640626c6.648438 9.472656 13.953126 18.449218 21.847657 26.871094 2.34375-.109376 4.21875-2.03125 4.21875-4.40625v-18.042969c0-2.441407-1.980469-4.421875-4.425781-4.421875zm0 0" fill="#9dc2fc"/><path d="m65.960938 353.863281h-47.613282v6.398438c2.882813 7 6.078125 13.839843 9.574219 20.496093h38.039063c2.445312 0 4.425781-1.980468 4.425781-4.425781v-18.042969c0-2.441406-1.980469-4.425781-4.425781-4.425781zm0 0" fill="#7da8ff"/><path d="m70.386719 196.933594v18.039062c0 2.445313-1.980469 4.425782-4.425781 4.425782h-47.613282v-26.890626h47.613282c2.445312 0 4.425781 1.980469 4.425781 4.425782zm0 0" fill="#7da8ff"/><path d="m70.386719 304.503906v18.042969c0 2.441406-1.980469 4.425781-4.425781 4.425781h-47.613282v-26.894531h47.613282c2.445312 0 4.425781 1.984375 4.425781 4.425781zm0 0" fill="#7da8ff"/><path d="m70.386719 250.71875v18.042969c0 2.441406-1.980469 4.425781-4.425781 4.425781h-47.613282v-26.894531h47.613282c2.445312 0 4.425781 1.980469 4.425781 4.425781zm0 0" fill="#7da8ff"/><path d="m70.386719 376.332031v-18.042969c0-2.441406-1.980469-4.425781-4.425781-4.425781h-19.183594c-2.445313 0-4.429688 1.984375-4.429688 4.425781v18.042969c0 2.445313 1.984375 4.425781 4.429688 4.425781h19.183594c2.445312 0 4.425781-1.980468 4.425781-4.425781zm0 0" fill="#9dc2fc"/><path d="m70.386719 214.972656v-18.039062c0-2.445313-1.980469-4.425782-4.425781-4.425782h-19.183594c-2.445313 0-4.429688 1.980469-4.429688 4.425782v18.039062c0 2.445313 1.984375 4.425782 4.429688 4.425782h19.183594c2.445312 0 4.425781-1.980469 4.425781-4.425782zm0 0" fill="#9dc2fc"/><path d="m70.386719 322.546875v-18.042969c0-2.441406-1.980469-4.425781-4.425781-4.425781h-19.183594c-2.445313 0-4.429688 1.980469-4.429688 4.425781v18.042969c0 2.441406 1.984375 4.425781 4.429688 4.425781h19.183594c2.445312 0 4.425781-1.980468 4.425781-4.425781zm0 0" fill="#9dc2fc"/><path d="m70.386719 268.761719v-18.042969c0-2.445312-1.980469-4.425781-4.425781-4.425781h-19.183594c-2.445313 0-4.429688 1.980469-4.429688 4.425781v18.042969c0 2.441406 1.984375 4.425781 4.429688 4.425781h19.183594c2.445312 0 4.425781-1.984375 4.425781-4.425781zm0 0" fill="#9dc2fc"/><path d="m376.734375 41.445312c-13.375 0-252.140625 0-263.746094 0-8.195312 0-14.839843 6.644532-14.839843 14.839844v406.910156c11.546874 8.65625 23.894531 16.304688 36.894531 22.839844h219.636719c13-6.535156 25.34375-14.183594 36.894531-22.839844 0-48.042968 0-359.117187 0-406.910156 0-8.195312-6.644531-14.839844-14.839844-14.839844zm0 0" fill="#ecebed"/><path d="m156.902344 55.285156c0-6.316406 3.953125-11.699218 9.515625-13.839844-29.03125 0-50.171875 0-53.429688 0-8.195312 0-14.839843 6.644532-14.839843 14.839844v406.910156c11.546874 8.65625 23.894531 16.304688 36.894531 22.839844h21.859375c0-72.757812 0-421.019531 0-430.75zm0 0" fill="#d4d1da"/><path d="m363.261719 430.117188v-18.039063c0-2.445313-1.980469-4.425781-4.425781-4.425781h-29.589844c-2.445313 0-4.425782 1.980468-4.425782 4.425781v18.039063c0 2.445312 1.980469 4.429687 4.425782 4.429687h29.589844c2.445312-.003906 4.425781-1.984375 4.425781-4.429687zm0 0" fill="#9dc2fc"/><path d="m164.902344 430.117188v-18.039063c0-2.445313-1.984375-4.425781-4.429688-4.425781h-29.585937c-2.445313 0-4.425781 1.980468-4.425781 4.425781v18.039063c0 2.445312 1.980468 4.429687 4.425781 4.429687h29.585937c2.445313-.003906 4.429688-1.984375 4.429688-4.429687zm0 0" fill="#3c78ef"/><path d="m244.875 407.652344h-40.980469c-6.007812 0-10.925781 4.914062-10.925781 10.925781v67.457031h51.90625zm0 0" fill="#7da8ff"/><path d="m244.875 407.652344h40.976562c6.011719 0 10.925782 4.914062 10.925782 10.925781v67.457031h-51.902344zm0 0" fill="#9dc2fc"/><path d="m131.007812 483.957031c34.015626 17.898438 72.746094 28.042969 113.851563 28.042969s79.839844-10.144531 113.851563-28.042969zm0 0" fill="#d4d1da"/><path d="m244.964844 483.957031h-113.957032c34.015626 17.898438 72.746094 28.042969 113.851563 28.042969.222656 0 .441406-.003906.664063-.003906-11.734376-4.902344-11.691407-22.691406-.558594-28.039063zm0 0" fill="#bcb7c6"/><path d="m130.886719 138.722656c-2.445313 0-4.425781 1.980469-4.425781 4.425782v18.039062c0 2.445312 1.980468 4.425781 4.425781 4.425781h53.167969v-26.890625zm0 0" fill="#3c78ef"/><path d="m358.835938 138.722656h-55.222657v26.890625h55.222657c2.445312 0 4.425781-1.980469 4.425781-4.425781v-18.039062c0-2.445313-1.980469-4.425782-4.425781-4.425782zm0 0" fill="#9dc2fc"/><path d="m358.835938 192.507812h-55.222657v26.890626h55.222657c2.445312 0 4.425781-1.980469 4.425781-4.425782v-18.039062c0-2.445313-1.980469-4.425782-4.425781-4.425782zm0 0" fill="#9dc2fc"/><path d="m130.886719 192.507812c-2.445313 0-4.425781 1.980469-4.425781 4.425782v18.039062c0 2.445313 1.980468 4.425782 4.425781 4.425782h53.167969v-26.890626zm0 0" fill="#3c78ef"/><path d="m358.835938 84.933594h-55.222657v26.894531h55.222657c2.445312 0 4.425781-1.980469 4.425781-4.425781v-18.042969c0-2.445313-1.980469-4.425781-4.425781-4.425781zm0 0" fill="#9dc2fc"/><path d="m130.886719 84.933594c-2.445313 0-4.425781 1.984375-4.425781 4.425781v18.042969c0 2.445312 1.980468 4.425781 4.425781 4.425781h53.167969v-26.894531zm0 0" fill="#3c78ef"/><path d="m358.835938 246.292969h-55.222657v26.894531h55.222657c2.445312 0 4.425781-1.984375 4.425781-4.425781v-18.042969c0-2.445312-1.980469-4.425781-4.425781-4.425781zm0 0" fill="#9dc2fc"/><path d="m130.886719 246.292969c-2.445313 0-4.425781 1.980469-4.425781 4.425781v18.042969c0 2.441406 1.980468 4.425781 4.425781 4.425781h53.167969v-26.894531zm0 0" fill="#3c78ef"/><path d="m358.835938 300.078125h-55.222657v26.894531h55.222657c2.445312 0 4.425781-1.980468 4.425781-4.425781v-18.042969c0-2.441406-1.980469-4.425781-4.425781-4.425781zm0 0" fill="#9dc2fc"/><path d="m130.886719 300.078125c-2.445313 0-4.425781 1.984375-4.425781 4.425781v18.042969c0 2.445313 1.980468 4.425781 4.425781 4.425781h53.167969v-26.894531zm0 0" fill="#3c78ef"/><path d="m358.835938 353.867188h-55.222657v26.890624h55.222657c2.445312 0 4.425781-1.980468 4.425781-4.425781v-18.039062c0-2.445313-1.980469-4.425781-4.425781-4.425781zm0 0" fill="#9dc2fc"/><path d="m130.886719 353.867188c-2.445313 0-4.425781 1.980468-4.425781 4.425781v18.039062c0 2.445313 1.980468 4.425781 4.425781 4.425781h53.167969v-26.890624zm0 0" fill="#3c78ef"/><path d="m243.835938 84.933594h59.777343v26.894531h-59.777343zm0 0" fill="#7da8ff"/><path d="m184.054688 84.933594h59.78125v26.894531h-59.78125zm0 0" fill="#5085fe"/><path d="m243.835938 138.722656h59.777343v26.890625h-59.777343zm0 0" fill="#7da8ff"/><path d="m184.054688 138.722656h59.78125v26.890625h-59.78125zm0 0" fill="#5085fe"/><path d="m243.835938 192.507812h59.777343v26.890626h-59.777343zm0 0" fill="#7da8ff"/><path d="m184.054688 192.507812h59.78125v26.890626h-59.78125zm0 0" fill="#5085fe"/><path d="m243.835938 246.292969h59.777343v26.894531h-59.777343zm0 0" fill="#7da8ff"/><path d="m184.054688 246.292969h59.78125v26.894531h-59.78125zm0 0" fill="#5085fe"/><path d="m243.835938 300.078125h59.777343v26.894531h-59.777343zm0 0" fill="#7da8ff"/><path d="m184.054688 300.078125h59.78125v26.894531h-59.78125zm0 0" fill="#5085fe"/><path d="m243.835938 353.867188h59.777343v26.890624h-59.777343zm0 0" fill="#7da8ff"/><path d="m184.054688 353.867188h59.78125v26.890624h-59.78125zm0 0" fill="#5085fe"/></svg>