<?xml version="1.0" standalone="no"?>
<!DOCTYPE svg PUBLIC "-//W3C//DTD SVG 1.1//EN" "http://www.w3.org/Graphics/SVG/1.1/DTD/svg11.dtd">
<svg xmlns="http://www.w3.org/2000/svg" height="512" viewBox="-11 0 512 512" width="512"><path d="m478.582031 341.105469c7.410157-23.378907 11.421875-48.273438 11.421875-74.105469 0-135.3125-109.691406-245.003906-245.003906-245.003906-135.308594 0-245 109.691406-245 245.003906 0 25.832031 4.011719 50.726562 11.421875 74.105469zm0 0" fill="#ffe600"/><path d="m471.136719 153.011719c-19.28125 0-434.179688 0-452.269531 0v208.40625c36.96875 88.433593 124.289062 150.582031 226.132812 150.582031 101.847656 0 189.167969-62.148438 226.136719-150.582031 0-95.523438 0-202.828125 0-208.40625zm0 0" fill="#e6fcff"/><path d="m85.089844 153.011719c-36.71875 0-62.046875 0-66.222656 0v208.40625c14.785156 35.367187 37.625 66.519531 66.222656 91.183593zm0 0" fill="#ccebff"/><path d="m463.0625 301.640625v77.15625c6.488281-12.632813 11.910156-25.902344 16.148438-39.691406v-186.09375c0-4.457031-3.613282-8.074219-8.074219-8.074219h-452.269531c-4.460938 0-8.074219 3.617188-8.074219 8.074219v186.097656c4.238281 13.785156 9.65625 27.058594 16.148437 39.691406v-77.160156h96.921875v94.320313h-87.195312c3.433593 5.53125 7.078125 10.921874 10.925781 16.148437h76.269531v67.886719c5.265625 3 10.652344 5.804687 16.148438 8.417968v-76.304687h96.914062v99.742187c2.683594.089844 5.371094.148438 8.074219.148438s5.394531-.058594 8.074219-.148438v-99.742187h96.914062v76.304687c5.5-2.613281 10.886719-5.417968 16.148438-8.417968v-67.886719h76.269531c3.851562-5.226563 7.496094-10.617187 10.929688-16.148437h-87.199219v-94.320313zm-96.925781-140.554687h96.925781v124.40625h-96.925781zm-242.273438 124.40625h-96.921875v-124.40625h96.921875zm113.0625 110.46875h-96.914062v-94.320313h96.914062zm0-110.46875h-96.914062v-124.40625h96.914062zm113.0625 110.46875h-96.914062v-94.320313h96.914062zm0-110.46875h-96.914062v-124.40625h96.914062zm0 0" fill="#d9f3ff"/><path d="m85.089844 395.960938h-48.421875c3.433593 5.53125 7.078125 10.921874 10.925781 16.148437h37.496094zm0 0" fill="#b8dff4"/><path d="m26.941406 301.640625h58.148438v-16.148437h-58.148438v-124.40625h58.148438v-16.148438h-66.222656c-4.460938 0-8.074219 3.613281-8.074219 8.074219v186.09375c4.238281 13.789062 9.660156 27.058593 16.148437 39.691406zm0 0" fill="#b8dff4"/><path d="m105.164062 57.714844c-4.457031 0-8.070312-3.613282-8.070312-8.074219 0-18.152344-9.195312-33.492187-20.078125-33.492187-4.460937 0-8.074219-3.613282-8.074219-8.074219 0-4.457031 3.613282-8.074219 8.074219-8.074219 20.3125 0 36.226563 21.804688 36.226563 49.640625 0 4.460937-3.617188 8.074219-8.078126 8.074219zm0 0" fill="#ccebff"/><path d="m167.453125 57.714844c-4.460937 0-8.074219-3.613282-8.074219-8.074219 0-18.152344-9.191406-33.492187-20.074218-33.492187-4.460938 0-8.074219-3.613282-8.074219-8.074219 0-4.457031 3.613281-8.074219 8.074219-8.074219 20.3125 0 36.222656 21.804688 36.222656 49.640625 0 4.460937-3.613282 8.074219-8.074219 8.074219zm0 0" fill="#ccebff"/><path d="m378.847656 57.714844c-4.460937 0-8.074218-3.613282-8.074218-8.074219 0-18.152344-9.195313-33.492187-20.074219-33.492187-4.460938 0-8.074219-3.613282-8.074219-8.074219 0-4.457031 3.613281-8.074219 8.074219-8.074219 20.3125 0 36.222656 21.804688 36.222656 49.640625 0 4.460937-3.613281 8.074219-8.074219 8.074219zm0 0" fill="#ccebff"/><path d="m441.136719 57.714844c-4.460938 0-8.074219-3.613282-8.074219-8.074219 0-18.152344-9.195312-33.492187-20.078125-33.492187-4.457031 0-8.074219-3.613282-8.074219-8.074219 0-4.457031 3.617188-8.074219 8.074219-8.074219 20.3125 0 36.226563 21.804688 36.226563 49.640625 0 4.460937-3.617188 8.074219-8.074219 8.074219zm0 0" fill="#ccebff"/><path d="m116.183594 348.800781c0 22.523438-18.257813 40.78125-40.78125 40.78125-22.523438 0-40.78125-18.257812-40.78125-40.78125 0-22.523437 18.257812-40.78125 40.78125-40.78125 22.523437 0 40.78125 18.257813 40.78125 40.78125zm0 0" fill="#5f83fa"/><path d="m479.210938 182.941406c-16.734376 0-16.734376 11.085938-33.464844 11.085938-16.734375 0-16.734375-11.085938-33.464844-11.085938s-16.730469 11.085938-33.460938 11.085938c-16.730468 0-16.730468-11.085938-33.464843-11.085938-16.726563 0-16.726563 11.085938-33.457031 11.085938-16.730469 0-16.730469-11.085938-33.460938-11.085938-16.726562 0-16.726562 11.085938-33.457031 11.085938-16.726563 0-16.726563-11.085938-33.453125-11.085938-16.726563 0-16.726563 11.085938-33.453125 11.085938-16.726563 0-16.726563-11.085938-33.457031-11.085938-16.726563 0-16.726563 11.085938-33.457032 11.085938-16.726562 0-16.726562-11.085938-33.457031-11.085938-16.726563 0-16.726563 11.085938-33.453125 11.085938-16.730469 0-16.730469-11.085938-33.457031-11.085938v-29.929687h468.417969zm0 0" fill="#ccebff"/><path d="m85.089844 153.011719h-74.296875v29.929687c16.726562 0 16.726562 11.085938 33.453125 11.085938 16.730468 0 16.730468-11.085938 33.457031-11.085938 2.914063 0 5.3125.339844 7.386719.898438zm0 0" fill="#b8dff4"/><path d="m472.242188 158.554688h-454.484376c-7.316406 0-13.300781-5.988282-13.300781-13.300782v-82.3125c0-7.3125 5.984375-13.300781 13.300781-13.300781h454.484376c7.316406 0 13.304687 5.988281 13.304687 13.300781v82.3125c0 7.3125-5.988281 13.300782-13.304687 13.300782zm0 0" fill="#ec3969"/><path d="m73.929688 145.253906v-82.3125c0-7.3125 5.984374-13.300781 13.300781-13.300781h-69.472657c-7.316406 0-13.300781 5.988281-13.300781 13.300781v82.3125c0 7.3125 5.984375 13.300782 13.300781 13.300782h69.472657c-7.316407 0-13.300781-5.988282-13.300781-13.300782zm0 0" fill="#da2c5d"/><g fill="#e6fcff"><path d="m77.015625 99.28125c-20.3125 0-36.222656-21.804688-36.222656-49.640625s15.910156-49.640625 36.222656-49.640625c4.460937 0 8.074219 3.613281 8.074219 8.074219 0 4.460937-3.613282 8.074219-8.074219 8.074219-10.882813 0-20.074219 15.339843-20.074219 33.492187 0 18.15625 9.191406 33.492187 20.074219 33.492187 4.460937 0 8.074219 3.613282 8.074219 8.074219 0 4.460938-3.613282 8.074219-8.074219 8.074219zm0 0"/><path d="m139.304688 99.28125c-20.3125 0-36.222657-21.804688-36.222657-49.640625-.003906-27.835937 15.910157-49.640625 36.222657-49.640625 4.460937 0 8.074218 3.613281 8.074218 8.074219 0 4.460937-3.613281 8.074219-8.074218 8.074219-10.882813 0-20.074219 15.339843-20.074219 33.492187 0 18.15625 9.191406 33.492187 20.074219 33.492187 4.460937 0 8.074218 3.613282 8.074218 8.074219 0 4.460938-3.613281 8.074219-8.074218 8.074219zm0 0"/><path d="m350.699219 99.28125c-20.3125 0-36.226563-21.804688-36.226563-49.640625s15.914063-49.640625 36.226563-49.640625c4.457031 0 8.074219 3.613281 8.074219 8.074219 0 4.460937-3.617188 8.074219-8.074219 8.074219-10.882813 0-20.078125 15.339843-20.078125 33.492187 0 18.15625 9.195312 33.492187 20.078125 33.492187 4.457031 0 8.074219 3.613282 8.074219 8.074219 0 4.460938-3.617188 8.074219-8.074219 8.074219zm0 0"/><path d="m412.984375 99.28125c-20.308594 0-36.222656-21.804688-36.222656-49.640625s15.910156-49.640625 36.222656-49.640625c4.460937 0 8.074219 3.613281 8.074219 8.074219 0 4.460937-3.613282 8.074219-8.074219 8.074219-10.878906 0-20.074219 15.339843-20.074219 33.492187 0 18.15625 9.195313 33.492187 20.074219 33.492187 4.460937 0 8.074219 3.613282 8.074219 8.074219 0 4.460938-3.613282 8.074219-8.074219 8.074219zm0 0"/></g><path d="m279.421875 112.171875h-73.160156c-4.460938 0-8.074219-3.613281-8.074219-8.074219 0-4.457031 3.613281-8.074218 8.074219-8.074218h73.160156c4.460937 0 8.074219 3.617187 8.074219 8.074218 0 4.460938-3.613282 8.074219-8.074219 8.074219zm0 0" fill="#fe4675"/><path d="m69.308594 372.269531c0-7.175781 4.367187-13.328125 10.585937-15.957031v-14c-6.21875-2.625-10.585937-8.78125-10.585937-15.953125 0-8.96875 6.820312-16.34375 15.550781-17.226563-3.035156-.722656-6.199219-1.113281-9.457031-1.113281-22.523438 0-40.78125 18.257813-40.78125 40.78125 0 22.523438 18.257812 40.78125 40.78125 40.78125 2.332031 0 4.613281-.207031 6.835937-.582031-7.433593-1.945312-12.929687-8.6875-12.929687-16.730469zm0 0" fill="#4070ea"/><path d="m72.5 366.425781c-2.140625 0-4.195312-.851562-5.710938-2.363281l-9.65625-9.660156c-3.152343-3.152344-3.152343-8.265625 0-11.417969 3.152344-3.152344 8.265626-3.152344 11.421876 0l3.945312 3.949219 11.488281-11.488282c3.15625-3.152343 8.265625-3.152343 11.421875 0 3.152344 3.152344 3.152344 8.265626 0 11.417969l-17.199218 17.199219c-1.515626 1.511719-3.570313 2.363281-5.710938 2.363281zm0 0" fill="#e6fcff"/><path d="m229.25 348.800781c0 22.523438-18.257812 40.78125-40.78125 40.78125-22.519531 0-40.78125-18.257812-40.78125-40.78125 0-22.523437 18.261719-40.78125 40.78125-40.78125 22.523438 0 40.78125 18.257813 40.78125 40.78125zm0 0" fill="#5f83fa"/><path d="m182.378906 372.269531c0-7.175781 4.363282-13.328125 10.582032-15.957031v-14c-6.21875-2.625-10.582032-8.78125-10.582032-15.953125 0-8.96875 6.816406-16.34375 15.550782-17.226563-3.039063-.722656-6.203126-1.113281-9.460938-1.113281-22.523438 0-40.78125 18.257813-40.78125 40.78125 0 22.523438 18.257812 40.78125 40.78125 40.78125 2.332031 0 4.613281-.207031 6.835938-.582031-7.433594-1.945312-12.925782-8.6875-12.925782-16.730469zm0 0" fill="#4070ea"/><path d="m185.566406 366.425781c-2.140625 0-4.195312-.851562-5.707031-2.363281l-9.660156-9.660156c-3.152344-3.152344-3.152344-8.265625 0-11.417969 3.15625-3.152344 8.269531-3.152344 11.421875 0l3.945312 3.949219 11.488282-11.488282c3.15625-3.152343 8.265624-3.152343 11.421874 0 3.152344 3.152344 3.152344 8.265626 0 11.417969l-17.199218 17.199219c-1.515625 1.511719-3.566406 2.363281-5.710938 2.363281zm0 0" fill="#e6fcff"/><path d="m342.3125 348.800781c0 22.523438-18.257812 40.78125-40.78125 40.78125s-40.78125-18.257812-40.78125-40.78125c0-22.523437 18.257812-40.78125 40.78125-40.78125s40.78125 18.257813 40.78125 40.78125zm0 0" fill="#5f83fa"/><path d="m295.441406 372.269531c0-7.175781 4.363282-13.328125 10.582032-15.957031v-14c-6.21875-2.625-10.582032-8.78125-10.582032-15.953125 0-8.96875 6.816406-16.34375 15.550782-17.226563-3.039063-.722656-6.203126-1.113281-9.460938-1.113281-22.523438 0-40.78125 18.257813-40.78125 40.78125 0 22.523438 18.261719 40.78125 40.78125 40.78125 2.332031 0 4.613281-.207031 6.835938-.582031-7.433594-1.945312-12.925782-8.6875-12.925782-16.730469zm0 0" fill="#4070ea"/><path d="m298.632812 366.425781c-2.144531 0-4.195312-.851562-5.710937-2.363281l-9.660156-9.660156c-3.152344-3.152344-3.152344-8.265625.003906-11.417969 3.152344-3.152344 8.265625-3.152344 11.417969 0l3.949218 3.949219 11.484376-11.488282c3.15625-3.152343 8.269531-3.152343 11.421874 0 3.152344 3.152344 3.152344 8.265626 0 11.417969l-17.199218 17.199219c-1.515625 1.511719-3.566406 2.363281-5.707032 2.363281zm0 0" fill="#e6fcff"/><path d="m342.3125 238.601562c0 22.523438-18.257812 40.78125-40.78125 40.78125s-40.78125-18.257812-40.78125-40.78125c0-22.523437 18.257812-40.78125 40.78125-40.78125s40.78125 18.257813 40.78125 40.78125zm0 0" fill="#5f83fa"/><path d="m295.441406 262.070312c0-7.175781 4.363282-13.328124 10.582032-15.957031v-14c-6.21875-2.625-10.582032-8.78125-10.582032-15.953125 0-8.96875 6.816406-16.34375 15.550782-17.226562-3.039063-.71875-6.203126-1.113282-9.460938-1.113282-22.523438 0-40.78125 18.257813-40.78125 40.78125 0 22.523438 18.261719 40.78125 40.78125 40.78125 2.332031 0 4.613281-.207031 6.835938-.582031-7.433594-1.941406-12.925782-8.6875-12.925782-16.730469zm0 0" fill="#4070ea"/><path d="m298.632812 256.230469c-2.144531 0-4.195312-.851563-5.710937-2.367188l-9.660156-9.65625c-3.152344-3.152343-3.152344-8.265625.003906-11.421875 3.152344-3.152344 8.265625-3.148437 11.417969 0l3.949218 3.949219 11.484376-11.488281c3.15625-3.152344 8.269531-3.152344 11.421874 0 3.152344 3.15625 3.152344 8.269531 0 11.421875l-17.199218 17.195312c-1.515625 1.515625-3.566406 2.367188-5.707032 2.367188zm0 0" fill="#e6fcff"/><path d="m455.375 238.601562c0 22.523438-18.257812 40.78125-40.78125 40.78125-22.519531 0-40.78125-18.257812-40.78125-40.78125 0-22.523437 18.261719-40.78125 40.78125-40.78125 22.523438 0 40.78125 18.257813 40.78125 40.78125zm0 0" fill="#5f83fa"/><path d="m408.503906 262.070312c0-7.175781 4.363282-13.328124 10.582032-15.957031v-14c-6.21875-2.625-10.582032-8.78125-10.582032-15.953125 0-8.96875 6.816406-16.34375 15.550782-17.226562-3.039063-.71875-6.203126-1.113282-9.460938-1.113282-22.523438 0-40.78125 18.257813-40.78125 40.78125 0 22.523438 18.257812 40.78125 40.78125 40.78125 2.332031 0 4.613281-.207031 6.835938-.582031-7.433594-1.941406-12.925782-8.6875-12.925782-16.730469zm0 0" fill="#4070ea"/><path d="m411.691406 256.230469c-2.140625 0-4.195312-.851563-5.707031-2.367188l-9.660156-9.65625c-3.152344-3.152343-3.152344-8.265625 0-11.421875 3.15625-3.152344 8.269531-3.148437 11.421875 0l3.945312 3.949219 11.488282-11.488281c3.15625-3.152344 8.265624-3.152344 11.421874 0 3.152344 3.15625 3.152344 8.269531 0 11.421875l-17.199218 17.195312c-1.511719 1.515625-3.566406 2.367188-5.710938 2.367188zm0 0" fill="#e6fcff"/></svg>