<?xml version="1.0" standalone="no"?>
<!DOCTYPE svg PUBLIC "-//W3C//DTD SVG 1.1//EN" "http://www.w3.org/Graphics/SVG/1.1/DTD/svg11.dtd">
<svg xmlns="http://www.w3.org/2000/svg" xmlns:xlink="http://www.w3.org/1999/xlink" xmlns:serif="http://www.serif.com/" width="410" height="411" viewBox="0 0 410 411" version="1.1" xml:space="preserve" style="fill-rule:evenodd;clip-rule:evenodd;stroke-linejoin:round;stroke-miterlimit:2;">
    <g>
        <g>
            <path d="M409.602,205.201C409.602,318.306 317.906,410.002 204.801,410.002C91.691,410.002 0,318.306 0,205.201C0,92.091 91.691,0.4 204.801,0.4C317.906,0.4 409.602,92.091 409.602,205.201Z" style="fill:rgb(21,50,171);fill-rule:nonzero;"/>
            <path d="M95.805,378.603C127.371,398.486 164.738,410.002 204.801,410.002C244.863,410.002 282.23,398.486 313.797,378.603L95.805,378.603Z" style="fill:rgb(58,114,239);fill-rule:nonzero;"/>
            <path d="M195.711,378.603L95.805,378.603C124.699,396.802 158.461,407.986 194.695,409.748C174.66,408.638 175.547,378.603 195.711,378.603Z" style="fill:rgb(51,98,229);fill-rule:nonzero;"/>
            <path d="M253.992,190.033C243.371,190.033 234.684,198.724 234.684,209.341L234.684,210.962L273.297,210.962L273.297,209.341C273.297,198.72 264.609,190.033 253.992,190.033Z" style="fill:rgb(214,215,225);fill-rule:nonzero;"/>
            <path d="M262.789,192.177C260.148,190.81 257.156,190.033 253.992,190.033C243.371,190.033 234.684,198.72 234.684,209.337L234.684,210.962L252.285,210.962L252.285,209.337C252.285,201.888 256.566,195.392 262.789,192.177Z" style="fill:rgb(186,194,200);fill-rule:nonzero;"/>
            <path d="M274.113,138.892L274.113,19.955C274.113,9.173 265.34,0.4 254.559,0.4L73.988,0.4C63.207,0.4 54.434,9.173 54.434,19.955L54.434,138.892L274.113,138.892Z" style="fill:rgb(50,75,108);fill-rule:nonzero;"/>
            <path d="M114.516,0.4L73.988,0.4C63.207,0.4 54.434,9.173 54.434,19.955L54.434,138.892L94.961,138.892L94.961,19.955C94.961,9.173 103.734,0.4 114.516,0.4Z" style="fill:rgb(34,61,86);fill-rule:nonzero;"/>
            <rect x="74.559" y="38.662" width="179.434" height="100.23" style="fill:white;fill-rule:nonzero;"/>
            <rect x="74.559" y="38.662" width="20.402" height="100.23" style="fill:rgb(214,215,225);fill-rule:nonzero;"/>
            <path d="M186.355,209.287L142.195,209.287L147.227,169.474L181.324,169.474L186.355,209.287Z" style="fill:rgb(186,194,200);fill-rule:nonzero;"/>
            <path d="M147.227,169.474L142.195,209.287L162.242,209.287L167.27,169.474L147.227,169.474Z" style="fill:rgb(174,179,183);fill-rule:nonzero;"/>
            <path d="M328.992,368.041L358.391,233.869C359.145,230.423 357.008,227.009 353.617,226.244C350.23,225.47 346.867,227.646 346.113,231.091L313.797,378.603C319.027,375.31 324.094,371.783 328.992,368.041Z" style="fill:rgb(214,215,225);fill-rule:nonzero;"/>
            <path d="M320.895,231.091C320.141,227.646 316.781,225.47 313.391,226.244C310,227.009 307.863,230.423 308.621,233.869L336.668,361.884C340.367,358.767 343.953,355.525 347.422,352.158L320.895,231.091Z" style="fill:rgb(214,215,225);fill-rule:nonzero;"/>
            <path d="M96.207,226.244C92.82,225.474 89.457,227.646 88.703,231.091L62.18,352.158C65.645,355.525 69.234,358.767 72.93,361.884L100.98,233.869C101.734,230.423 99.598,227.009 96.207,226.244Z" style="fill:rgb(214,215,225);fill-rule:nonzero;"/>
            <path d="M95.805,378.603L63.484,231.091C62.73,227.646 59.375,225.47 55.98,226.244C52.59,227.009 50.457,230.423 51.211,233.869L80.605,368.041C85.504,371.783 90.574,375.31 95.805,378.603Z" style="fill:rgb(214,215,225);fill-rule:nonzero;"/>
            <path d="M353.812,141.455L316.383,151.482C314.773,151.912 313.117,150.96 312.688,149.349L301.957,109.314C301.527,107.705 302.48,106.052 304.094,105.619L341.523,95.591C343.133,95.158 344.789,96.115 345.219,97.724L355.945,137.755C356.375,139.365 355.422,141.021 353.812,141.455Z" style="fill:rgb(247,153,36);fill-rule:nonzero;"/>
            <path d="M353.812,62.15L316.383,72.181C314.773,72.611 313.117,71.658 312.688,70.045L301.957,30.013C301.527,28.404 302.48,26.748 304.094,26.318L341.523,16.287C343.133,15.857 344.789,16.81 345.219,18.42L355.945,58.455C356.375,60.064 355.422,61.72 353.812,62.15Z" style="fill:rgb(247,153,36);fill-rule:nonzero;"/>
            <path d="M365.734,210.123L43.867,210.123C36.938,210.123 31.324,215.74 31.324,222.67C31.324,229.595 36.938,235.212 43.867,235.212L365.734,235.212C372.66,235.212 378.277,229.595 378.277,222.67C378.277,215.74 372.66,210.123 365.734,210.123Z" style="fill:rgb(171,59,29);fill-rule:nonzero;"/>
            <path d="M151.324,222.67C151.324,215.74 156.938,210.123 163.867,210.123L43.867,210.123C36.938,210.123 31.324,215.74 31.324,222.67C31.324,229.595 36.938,235.212 43.867,235.212L163.867,235.212C156.938,235.212 151.324,229.595 151.324,222.67Z" style="fill:rgb(144,52,26);fill-rule:nonzero;"/>
            <path d="M54.434,136.377L54.434,150.755C54.434,161.541 63.207,170.31 73.988,170.31L254.559,170.31C265.34,170.31 274.113,161.541 274.113,150.755L274.113,136.377L54.434,136.377Z" style="fill:rgb(214,215,225);fill-rule:nonzero;"/>
            <path d="M94.262,150.759L94.262,136.377L54.434,136.377L54.434,150.755C54.434,161.541 63.207,170.31 73.988,170.31L113.816,170.31C103.035,170.31 94.262,161.541 94.262,150.759Z" style="fill:rgb(186,194,200);fill-rule:nonzero;"/>
            <path d="M164.277,159.634C160.699,159.634 157.988,156.697 157.988,153.345C157.988,149.878 160.789,147.056 164.277,147.056C167.746,147.056 170.566,149.873 170.566,153.345C170.566,156.705 167.824,159.634 164.277,159.634Z" style="fill:rgb(186,194,200);fill-rule:nonzero;"/>
            <path d="M213.785,210.962L114.762,210.962C111.289,210.962 108.473,208.146 108.473,204.673C108.473,201.201 111.289,198.384 114.762,198.384L213.785,198.384C217.258,198.384 220.074,201.201 220.074,204.673C220.074,208.146 217.258,210.962 213.785,210.962Z" style="fill:rgb(214,215,225);fill-rule:nonzero;"/>
            <path d="M154.734,204.673C154.734,201.201 157.547,198.384 161.023,198.384L114.762,198.384C111.289,198.384 108.473,201.201 108.473,204.673C108.473,208.146 111.289,210.962 114.762,210.962L161.023,210.962C157.547,210.962 154.734,208.146 154.734,204.673Z" style="fill:rgb(186,194,200);fill-rule:nonzero;"/>
            <path d="M342.785,147.275L304.035,147.275C302.367,147.275 301.016,145.927 301.016,144.259L301.016,102.814C301.016,101.146 302.367,99.795 304.035,99.795L342.785,99.795C344.453,99.795 345.801,101.146 345.801,102.814L345.801,144.259C345.805,145.927 344.453,147.275 342.785,147.275Z" style="fill:rgb(254,207,83);fill-rule:nonzero;"/>
            <path d="M323.41,144.259L323.41,102.814C323.41,101.146 324.762,99.795 326.426,99.795L304.035,99.795C302.367,99.795 301.016,101.146 301.016,102.814L301.016,144.259C301.016,145.923 302.367,147.275 304.035,147.275L326.426,147.275C324.762,147.275 323.41,145.927 323.41,144.259Z" style="fill:rgb(248,181,66);fill-rule:nonzero;"/>
            <path d="M323.41,120.998C319.957,120.998 317.121,118.185 317.121,114.709C317.121,111.248 319.934,108.42 323.41,108.42C325.062,108.42 326.68,109.091 327.855,110.255C329.027,111.431 329.699,113.056 329.699,114.709C329.699,118.111 326.941,120.998 323.41,120.998Z" style="fill:rgb(242,33,30);fill-rule:nonzero;"/>
            <path d="M342.785,67.974L304.035,67.974C302.367,67.974 301.016,66.623 301.016,64.959L301.016,23.509C301.016,21.845 302.367,20.494 304.035,20.494L342.785,20.494C344.453,20.494 345.801,21.845 345.801,23.509L345.801,64.959C345.805,66.623 344.453,67.974 342.785,67.974Z" style="fill:rgb(254,207,83);fill-rule:nonzero;"/>
            <path d="M323.41,64.959L323.41,23.509C323.41,21.845 324.762,20.494 326.426,20.494L304.035,20.494C302.367,20.494 301.016,21.845 301.016,23.509L301.016,64.959C301.016,66.623 302.367,67.974 304.035,67.974L326.426,67.974C324.762,67.974 323.41,66.623 323.41,64.959Z" style="fill:rgb(248,181,66);fill-rule:nonzero;"/>
            <path d="M323.41,41.693C319.914,41.693 317.121,38.841 317.121,35.404C317.121,31.384 320.836,28.451 324.633,29.244C327.449,29.771 329.699,32.322 329.699,35.404C329.699,38.802 326.941,41.693 323.41,41.693Z" style="fill:rgb(242,33,30);fill-rule:nonzero;"/>
            <path d="M234.285,136.377L234.285,44.166C234.285,41.587 232.195,39.498 229.617,39.498L98.93,39.498C96.352,39.498 94.262,41.587 94.262,44.166L94.262,136.377L234.285,136.377Z" style="fill:rgb(107,153,253);fill-rule:nonzero;"/>
            <path d="M123.363,39.498L98.93,39.498C96.352,39.498 94.262,41.587 94.262,44.166L94.262,136.377L118.695,136.377L118.695,44.166C118.695,41.587 120.785,39.498 123.363,39.498Z" style="fill:rgb(80,133,254);fill-rule:nonzero;"/>
            <path d="M229.617,39.498L98.93,39.498C96.352,39.498 94.262,41.587 94.262,44.166L94.262,67.962L234.285,67.962L234.285,44.166C234.285,41.587 232.195,39.498 229.617,39.498Z" style="fill:rgb(162,192,252);fill-rule:nonzero;"/>
            <path d="M123.363,39.498L98.93,39.498C96.352,39.498 94.262,41.587 94.262,44.166L94.262,67.962L118.695,67.962L118.695,44.166C118.695,41.587 120.785,39.498 123.363,39.498Z" style="fill:rgb(107,153,253);fill-rule:nonzero;"/>
            <path d="M125.52,128.076L111.871,128.076C108.395,128.076 105.582,125.263 105.582,121.787C105.582,118.314 108.395,115.498 111.871,115.498L125.52,115.498C128.992,115.498 131.809,118.314 131.809,121.787C131.809,125.263 128.992,128.076 125.52,128.076Z" style="fill:rgb(135,172,253);fill-rule:nonzero;"/>
            <path d="M125.52,88.837L111.871,88.837C108.395,88.837 105.582,86.025 105.582,82.548C105.582,79.076 108.395,76.259 111.871,76.259L125.52,76.259C128.992,76.259 131.809,79.076 131.809,82.548C131.809,86.025 128.992,88.837 125.52,88.837Z" style="fill:rgb(135,172,253);fill-rule:nonzero;"/>
            <path d="M125.52,108.459L111.871,108.459C108.395,108.459 105.582,105.642 105.582,102.17C105.582,98.697 108.395,95.88 111.871,95.88L125.52,95.88C128.992,95.88 131.809,98.697 131.809,102.17C131.809,105.642 128.992,108.459 125.52,108.459Z" style="fill:rgb(135,172,253);fill-rule:nonzero;"/>
            <rect x="142.191" y="67.959" width="92.09" height="68.418" style="fill:rgb(135,172,253);fill-rule:nonzero;"/>
            <path d="M249.535,20.525L79.016,20.525C76.555,20.525 74.559,22.517 74.559,24.978L74.559,39.498L253.992,39.498L253.992,24.978C253.992,22.517 251.996,20.525 249.535,20.525Z" style="fill:rgb(80,133,254);fill-rule:nonzero;"/>
            <path d="M94.961,20.525L79.016,20.525C76.555,20.525 74.559,22.517 74.559,24.978L74.559,39.498L94.961,39.498L94.961,20.525Z" style="fill:rgb(58,114,239);fill-rule:nonzero;"/>
        </g>
    </g>
</svg>