<?xml version="1.0" standalone="no"?>
<!DOCTYPE svg PUBLIC "-//W3C//DTD SVG 1.1//EN" "http://www.w3.org/Graphics/SVG/1.1/DTD/svg11.dtd">
<svg xmlns="http://www.w3.org/2000/svg" height="512" viewBox="-11 0 512 512" width="512"><path d="m100.855469 465.109375c21.039062 15.332031 44.609375 27.402344 69.972656 35.449219l140.527344 2.34375c28.34375-7.957032 54.605469-20.894532 77.789062-37.792969l88.191407-120.167969c8.210937-24.484375 12.667968-50.691406 12.667968-77.941406 0-135.308594-109.691406-245-245.003906-245-135.308594 0-245 109.691406-245 245 0 27.25 4.453125 53.457031 12.664062 77.941406zm0 0" fill="#ffe600"/><path d="m253.65625 22.179688v-13.523438c0-4.78125-3.875-8.65625-8.65625-8.65625s-8.65625 3.875-8.65625 8.65625v13.523438zm0 0" fill="#fe4675"/><path d="m445.824219 407.351562c14.015625-20.015624 25.109375-42.21875 32.675781-66v-224.140624c0-18.421876-14.933594-33.355469-33.351562-33.355469h-400.292969c-18.421875 0-33.355469 14.933593-33.355469 33.355469v224.140624c7.566406 23.78125 18.664062 45.984376 32.679688 66zm0 0" fill="#6244bd"/><path d="m101.621094 83.855469h-56.765625c-18.421875 0-33.355469 14.933593-33.355469 33.355469v224.140624c7.566406 23.78125 18.664062 45.984376 32.679688 66h24.089843v-290.140624c-.003906-18.421876 14.929688-33.355469 33.351563-33.355469zm0 0" fill="#4e2aa5"/><path d="m445.148438 110.855469h-400.292969c-3.511719 0-6.355469 2.84375-6.355469 6.355469v253.851562c0 4.023438 3.265625 7.289062 7.289062 7.289062h398.421876c4.027343 0 7.289062-3.265624 7.289062-7.289062 0-11.113281 0-239.847656 0-253.851562 0-3.511719-2.84375-6.355469-6.351562-6.355469zm0 0" fill="#5f83fa"/><path d="m164.507812 498.453125c25.210938 8.765625 52.292969 13.546875 80.492188 13.546875 25.34375 0 49.789062-3.847656 72.78125-10.992188l-18.148438-36.054687c-16.226562 0-101.929687 0-118.261718 0zm0 0" fill="#d9f3ff"/><path d="m164.503906 498.453125c17.660156 6.140625 36.230469 10.332031 55.464844 12.285156l14.554688-45.785156c-23.386719 0-45.628907 0-53.152344 0zm0 0" fill="#b8dff4"/><path d="m44.855469 110.855469c-3.511719 0-6.355469 2.84375-6.355469 6.355469v253.851562c0 4.023438 3.265625 7.289062 7.289062 7.289062h22.480469c0-11.664062 0-246.835937 0-261.140624 0-2.171876.214844-4.296876.609375-6.351563h-24.023437zm0 0" fill="#4070ea"/><path d="m42.789062 405.351562c16.542969 24.128907 37.28125 45.144532 61.179688 62h282.0625c23.898438-16.855468 44.640625-37.871093 61.179688-62zm0 0" fill="#e6fcff"/><path d="m42.789062 405.351562c7.667969 11.183594 16.234376 21.699219 25.605469 31.441407-.078125-.921875-.125-1.855469-.125-2.796875v-28.644532zm0 0" fill="#ccebff"/><path d="m254 436.351562c0 7.453126-6.042969 13.5-13.5 13.5-7.453125 0-13.5-6.046874-13.5-13.5 0-7.457031 6.046875-13.5 13.5-13.5 7.457031 0 13.5 6.042969 13.5 13.5zm0 0" fill="#ccebff"/><path d="m38.5 371.0625c0 4.023438 3.265625 7.289062 7.289062 7.289062h398.421876c4.027343 0 7.289062-3.265624 7.289062-7.289062v-125.632812c-9.894531 2.277343-33.414062 10.339843-42.898438 36.601562-1.535156 4.25-5.015624 7.476562-9.386718 8.640625-10.425782 2.773437-28.785156 11.195313-32.089844 36.320313-4.667969 35.464843-85.957031 47.464843-100-2h-44.246094c-14.046875 49.464843-95.332031 37.464843-100 2-3.304687-25.125-21.664062-33.546876-32.09375-36.320313-4.367187-1.164063-7.851562-4.390625-9.386718-8.640625-9.480469-26.261719-33.003907-34.324219-42.898438-36.601562zm0 0" fill="#caddfc"/><path d="m403.191406 356c-.453125-5.476562.726563-10.652344 3.101563-15.097656 1.117187-2.085938.054687-4.707032-2.179688-5.480469-10.667969-3.691406-18.351562-13.835937-18.351562-25.742187 0-5.996094 1.953125-11.539063 5.25-16.042969-9.898438 4.589843-21.347657 14.027343-23.886719 33.351562-4.667969 35.46875-85.957031 47.46875-100-2h-44.246094c-14.046875 49.46875-95.332031 37.46875-100 2-3.308594-25.121093-21.664062-33.542969-32.09375-36.320312-4.367187-1.160157-7.851562-4.386719-9.386718-8.640625-9.480469-26.257813-33.003907-34.320313-42.898438-36.601563v125.632813c0 4.027344 3.265625 7.289062 7.289062 7.289062h373.015626c-8.585938-4.046875-14.792969-12.476562-15.613282-22.347656zm0 0" fill="#b4ccfc"/><path d="m187.144531 233.390625c-22.445312 17.523437-36.707031 44.984375-36.242187 75.65625.144531 9.246094 1.613281 18.164063 4.230468 26.566406 1.160157 3.738281 6.242188 4.277344 8.097657.832031 10.070312-18.671874 26.28125-33.570312 45.960937-41.972656-5.734375-12.421875-14.894531-34.328125-22.046875-61.082031zm0 0" fill="#fe4675"/><path d="m339.09375 305.820312c-.558594-29.347656-14.683594-55.429687-36.265625-72.324218-7 26.15625-15.917969 47.667968-21.660156 60.195312 19.585937 7.871094 35.945312 22.132813 46.441406 40.253906 1.960937 3.386719 7.023437 2.6875 8.074219-1.082031 2.386718-8.589843 3.585937-17.667969 3.410156-27.042969zm0 0" fill="#fe4675"/><path d="m302.910156 292.128906c1.777344-4.402344 3.644532-9.25 5.519532-14.480468 3.304687-9.207032 12.527343-13.386719 20.824218-11.832032-6.316406-12.644531-15.394531-23.683594-26.425781-32.320312-7 26.15625-15.917969 47.667968-21.660156 60.199218 7.816406 3.140626 15.109375 7.3125 21.730469 12.332032-1.738282-4.332032-1.839844-9.3125.011718-13.898438zm0 0" fill="#ec3969"/><path d="m209.191406 294.472656c-5.734375-12.421875-14.898437-34.328125-22.046875-61.082031-11.167969 8.71875-20.308593 19.902344-26.621093 32.714844 8.457031-1.238281 17.628906 3.125 20.976562 12.457031 1.957031 5.457031 3.902344 10.511719 5.757812 15.105469 1.828126 4.527343 1.8125 9.421875.269532 13.761719 6.5625-5.226563 13.832031-9.613282 21.664062-12.957032zm0 0" fill="#ec3969"/><path d="m293.554688 269.644531c18.449218-50.542969 39.042968-138.34375-5.929688-205.707031-1.089844.859375-2.476562 1.390625-4.070312 1.390625h-77.109376c-1.589843 0-2.976562-.53125-4.066406-1.390625-44.972656 67.363281-24.382812 155.164062-5.933594 205.707031zm0 0" fill="#e6fcff"/><path d="m241.640625 65.328125h-35.195313c-1.589843 0-2.976562-.53125-4.066406-1.390625-44.972656 67.363281-24.382812 155.164062-5.929687 205.707031h41.949219c-11.824219-50.199219-25-137.144531 3.242187-204.316406zm0 0" fill="#ccebff"/><path d="m288.6875 54.550781c-9.757812-11.917969-21.355469-23.207031-35.03125-33.652343h-17.3125c-13.675781 10.445312-25.273438 21.734374-35.03125 33.652343-3.523438 4.304688-.433594 10.777344 5.132812 10.777344h77.109376c5.566406 0 8.660156-6.472656 5.132812-10.777344zm0 0" fill="#f9ce00"/><path d="m240.222656 54.550781c3.632813-11.917969 7.949219-23.207031 13.039063-33.652343h-16.914063c-13.675781 10.445312-25.273437 21.734374-35.03125 33.652343-3.527344 4.304688-.433594 10.777344 5.128906 10.777344h35.6875c-2.070312 0-3.222656-6.472656-1.910156-10.777344zm0 0" fill="#f4b500"/><path d="m195.980469 268.363281c9.238281 25.570313 18.078125 41.957031 18.078125 41.957031h61.882812s8.84375-16.386718 18.078125-41.957031zm0 0" fill="#ccebff"/><path d="m195.980469 268.363281c9.238281 25.570313 18.078125 41.957031 18.078125 41.957031h35.703125s-5.707031-16.386718-11.664063-41.957031zm0 0" fill="#b8dff4"/><path d="m277.699219 326.992188h-65.398438c-4.78125 0-8.65625-3.875-8.65625-8.65625s3.875-8.65625 8.65625-8.65625h65.398438c4.78125 0 8.65625 3.875 8.65625 8.65625s-3.875 8.65625-8.65625 8.65625zm0 0" fill="#6244bd"/><path d="m227.429688 318.335938c0-4.78125 3.875-8.65625 8.65625-8.65625h-23.785157c-4.78125 0-8.65625 3.875-8.65625 8.65625s3.875 8.65625 8.65625 8.65625h23.785157c-4.78125 0-8.65625-3.875-8.65625-8.65625zm0 0" fill="#4e2aa5"/><path d="m245 233.390625c-4.78125 0-8.65625 3.875-8.65625 8.65625v85.425781c0 4.78125 3.875 8.65625 8.65625 8.65625s8.65625-3.875 8.65625-8.65625c0-7.566406 0-73.964844 0-85.425781 0-4.78125-3.875-8.65625-8.65625-8.65625zm0 0" fill="#fe4675"/><path d="m245 291.796875c-4.78125 0-8.65625-3.875-8.65625-8.65625v44.332031c0 4.78125 3.875 8.65625 8.65625 8.65625s8.65625-3.875 8.65625-8.65625c0-3.988281 0-24.316406 0-44.332031 0 4.78125-3.875 8.65625-8.65625 8.65625zm0 0" fill="#ec3969"/><path d="m143.875 351.8125c.222656 0 .4375.023438.65625.03125-11.636719-5.371094-20.226562-14.011719-21.652344-24.851562-3.308594-25.125-21.664062-33.546876-32.09375-36.320313-4.367187-1.164063-7.851562-4.390625-9.386718-8.640625-9.480469-26.261719-33.003907-34.324219-42.898438-36.601562v125.628906c0 4.027344 3.265625 7.289062 7.289062 7.289062h90.003907c-11.773438-7.917968-6.269531-26.535156 8.082031-26.535156zm0 0" fill="#9db8fc"/><path d="m245 191.984375c-24.5625 0-44.550781-19.984375-44.550781-44.550781 0-24.5625 19.988281-44.546875 44.550781-44.546875 24.566406 0 44.550781 19.984375 44.550781 44.546875 0 24.566406-19.984375 44.550781-44.550781 44.550781zm0 0" fill="#6244bd"/><path d="m262.078125 167.664062-26.074219-45.164062c-8.175781-.894531-11.972656-10.539062-6.660156-16.765625-16.863281 6.351563-28.894531 22.644531-28.894531 41.699219 0 24.5625 19.988281 44.546875 44.550781 44.546875 10.738281 0 20.601562-3.816407 28.300781-10.167969-8.046875 1.511719-14.539062-6.597656-11.222656-14.148438zm0 0" fill="#4e2aa5"/><path d="m245 120.195312c-15.019531 0-27.238281 12.21875-27.238281 27.238282 0 15.019531 12.21875 27.238281 27.238281 27.238281s27.238281-12.21875 27.238281-27.238281c0-15.019532-12.21875-27.238282-27.238281-27.238282zm0 0" fill="#51e0f4"/><path d="m231.871094 135.507812c0-4.695312.964844-9.167968 2.703125-13.234374-9.859375 4.101562-16.8125 13.832031-16.8125 25.160156 0 15.019531 12.21875 27.238281 27.238281 27.238281 6.230469 0 11.972656-2.105469 16.5625-5.636719-16.703125-2.027344-29.6875-16.285156-29.691406-33.527344zm0 0" fill="#15d4f0"/></svg>