<?xml version="1.0" standalone="no"?>
<!DOCTYPE svg PUBLIC "-//W3C//DTD SVG 1.1//EN" "http://www.w3.org/Graphics/SVG/1.1/DTD/svg11.dtd">
<svg xmlns="http://www.w3.org/2000/svg" height="511.9865417480469" viewBox="-15 0 511 511.98654" width="511"><path d="m482.140625 271.15625c0 133.003906-107.820313 240.824219-240.824219 240.824219s-240.824218-107.820313-240.824218-240.824219c0-133 107.820312-240.820312 240.824218-240.820312s240.824219 107.820312 240.824219 240.820312zm0 0" fill="#ff5252"/><path d="m160.75 416.757812s-29.617188-8.734374-30.734375-9.0625c-1.492187 4.179688-5.214844 14.609376-7.699219 21.570313-.816406 2.292969-3.621094 3.144531-5.578125 1.695313l-8.507812-6.316407h-16.238281l-.066407-.050781.019531.050781-8.507812 6.316407c-1.957031 1.449218-4.761719.597656-5.578125-1.695313l-7.699219-21.570313c-1.066406.3125-13.746094 4.042969-22.503906 6.621094 22.910156 30.9375 53.054688 56.191406 87.9375 73.261719h47.441406s-8.714844-53.6875-9.058594-55.433594c-2.328124-11.890625-13.226562-15.386719-13.226562-15.386719zm0 0" fill="#f6e6cb"/><path d="m57.078125 329.433594v-6.261719c0-2.707031 3.414063-2.914063 3.414063-2.914063v-.007812c22.753906-.902344 48.570312-10.386719 58.703124-14.304688 2.597657-1.011718 5.53125-.632812 8.042969 1.324219l14.027344 11.59375s1.878906 1.683594 1.878906 4.847657v5.914062c3.773438-.328125 8.070313.890625 10.464844 3.007812v-17.835937c0-29.496094-24-53.496094-53.496094-53.496094-29.5 0-53.5 24-53.5 53.496094v17.765625c2.390625-2.144531 6.683594-3.402344 10.464844-3.128906zm0 0" fill="#8c4f25"/><path d="m67.042969 319.773438v-4.976563c0-26.003906 18.652343-47.726563 43.28125-52.507813-3.308594-.640624-6.71875-.988281-10.210938-.988281-29.5 0-53.5 23.996094-53.5 53.496094v17.761719c2.390625-2.140625 6.683594-3.398438 10.464844-3.128906v-6.257813c0-2.707031 3.414063-2.917969 3.414063-2.917969v-.003906c2.160156-.085938 4.347656-.25 6.550781-.476562zm0 0" fill="#773c15"/><path d="m56.644531 326.878906c-7.136719-.546875-13.460937 4.699219-13.460937 11.09375 0 6.367188 6.289062 11.644532 13.460937 11.097656zm0 0" fill="#f59d6b"/><path d="m143.578125 327.082031v21.78125c7.152344.664063 13.460937-4.566406 13.460937-10.890625 0-6.351562-6.34375-11.550781-13.460937-10.890625zm0 0" fill="#f59d6b"/><path d="m44.503906 333.085938c-.835937 1.480468-1.320312 3.136718-1.320312 4.886718 0 6.367188 6.289062 11.644532 13.460937 11.097656v-9.773437c-5.207031.394531-9.933593-2.28125-12.140625-6.210937zm0 0" fill="#f28b51"/><path d="m143.578125 339.089844v9.773437c7.152344.664063 13.460937-4.566406 13.460937-10.890625 0-1.75-.496093-3.410156-1.34375-4.886718-2.222656 3.871093-6.945312 6.484374-12.117187 6.003906zm0 0" fill="#f28b51"/><path d="m118.5625 399.949219-10.332031 24.695312 8.511719 6.3125c1.957031 1.453125 4.757812.601563 5.578124-1.691406l7.695313-21.570313zm0 0" fill="#edd4b0"/><path d="m102.191406 392.621094c-7.398437.34375-14.425781-1.191406-20.660156-4.167969v11.496094c1.070312 2.523437-3.875-9.148438 10.460938 24.695312h16.238281l10.332031-24.695312c0-3.070313 0-7.660157 0-11.335938-5.015625 2.328125-10.542969 3.734375-16.371094 4.007813zm0 0" fill="#f59d6b"/><path d="m91.785156 396.734375v-4.886719c-3.589844-.710937-7.027344-1.851562-10.253906-3.394531v11.496094c1.070312 2.523437-3.875-9.148438 10.460938 24.695312h10.253906c-.042969-.101562-9.253906-21.839843-9.210938-21.738281-.824218-1.949219-1.25-4.050781-1.25-6.171875zm0 0" fill="#f28b51"/><path d="m91.992188 424.644531-4.152344 3.046875-.003906.003906 6.277343 10.796876h11.753907l6.328124-10.90625-3.964843-2.941407c-9.738281 0-6.269531 0-16.238281 0zm0 0" fill="#e74242"/><path d="m142.132812 317.566406-14.894531-11.597656c-2.511719-1.953125-5.445312-2.332031-8.042969-1.324219-10.132812 3.917969-36.816406 13.40625-59.570312 14.308594l.003906.003906s-3.417968.210938-3.417968 2.917969v27.566406c0 25.15625 20.851562 45.648438 45.980468 44.476563 23.277344-1.085938 41.820313-20.300781 41.820313-43.851563v-27.65625c0-3.160156-1.878907-4.84375-1.878907-4.84375zm0 0" fill="#f9ae85"/><path d="m67.027344 349.445312v-31.0625c-2.496094.273438-4.972656.472657-7.402344.570313l.003906.007813s-3.414062.207031-3.414062 2.914062v27.570312c0 25.15625 20.847656 45.644532 45.976562 44.472657 1.136719-.050781 2.253906-.160157 3.363282-.296875-21.667969-2.71875-38.527344-21.558594-38.527344-44.175782zm0 0" fill="#f59d6b"/><path d="m81.613281 399.949219 10.332031 24.695312-8.507812 6.3125c-1.957031 1.453125-4.761719.601563-5.578125-1.691406l-7.699219-21.570313zm0 0" fill="#edd4b0"/><path d="m102.246094 424.644531c-2.886719 0-3.332032 0-10.253906 0l-4.152344 3.046875-.003906.003906 6.277343 10.796876h9.316407c-6.320313-2.058594-7.085938-10.726563-1.183594-13.847657zm0 0" fill="#ce3232"/><path d="m91.183594 457.84375-.21875 1.429688c6.460937 5.167968 13.1875 10.023437 20.167968 14.515624l-2.347656-15.734374c-4.027344 6.761718-13.777344 6.585937-17.601562-.210938zm0 0" fill="#ff5252"/><path d="m313.359375 40.441406c-22.339844-38.6875-71.808594-51.941406-110.492187-29.605468-38.6875 22.335937-51.941407 71.804687-29.605469 110.492187 22.335937 38.6875 71.804687 51.941406 110.492187 29.605469 38.6875-22.335938 51.941406-71.804688 29.605469-110.492188zm0 0" fill="#ffdc67"/><path d="m217.082031 96.035156c-17.917969-31.035156-12.914062-68.992187 9.730469-94.332031-8.207031 1.710937-16.285156 4.714844-23.9375 9.132813-38.6875 22.335937-51.945312 71.808593-29.609375 110.496093s71.808594 51.941407 110.496094 29.605469c7.652343-4.417969 14.292969-9.910156 19.878906-16.160156-33.265625 6.9375-68.640625-7.710938-86.558594-38.742188zm0 0" fill="#ffb456"/><path d="m382.566406 261.300781c-32.320312 0-58.519531 26.199219-58.519531 58.515625v65.738282c0 4.242187 3.441406 7.679687 7.683594 7.679687h101.671875c4.242187 0 7.679687-3.4375 7.679687-7.679687v-65.738282c0-32.316406-26.199219-58.515625-58.515625-58.515625zm0 0" fill="#8c4f25"/><path d="m364.917969 374.277344c-5.476563 0-9.917969-4.4375-9.917969-9.917969v-43.667969c0-27.085937 18.144531-50.371094 43.082031-57.296875-4.945312-1.355469-10.144531-2.09375-15.515625-2.09375-32.320312 0-58.519531 26.199219-58.519531 58.519531v65.734376c0 4.242187 3.441406 7.683593 7.683594 7.683593h38.035156v-14.109375c0-2.679687-2.167969-4.851562-4.847656-4.851562zm0 0" fill="#773c15"/><path d="m402.492188 393.234375v-10.410156c-5.378907 2.914062-11.464844 4.695312-17.941407 5-7.945312.371093-15.4375-1.542969-21.910156-5.121094v10.53125l-16.441406 13.6875c-13.023438 3.40625-30.101563 7.597656-30.132813 7.605469-4.300781 1.605468-12.113281 5.929687-14.234375 16.558594-.375 1.878906-6.585937 56.492187-6.585937 56.492187h51.792968c35.921876-17.582031 66.820313-43.835937 89.964844-76.046875-5.570312-1.394531-12.230468-3.082031-18.074218-4.609375zm0 0" fill="#f6e6cb"/><path d="m90.890625 459.214844c6.457031 5.167968 13.175781 10.019531 20.148437 14.511718l-5.253906-35.234374c-4.148437 0-7.648437 0-11.753906 0zm0 0" fill="#ff5252"/><path d="m402.492188 393.234375-19.925782 26.773437c6.019532 15.847657 28.800782 14.734376 33.25-1.625l3.113282-11.457031zm0 0" fill="#edd4b0"/><path d="m362.640625 393.234375 19.925781 26.773437c-6.023437 15.847657-28.804687 14.734376-33.25-1.625l-3.117187-11.457031zm0 0" fill="#e0c096"/><path d="m382.566406 442.785156c-4.363281 0-7.902344 3.539063-7.902344 7.902344v21.019531c5.425782-3.613281 10.699219-7.433593 15.800782-11.464843v-9.554688c0-4.363281-3.535156-7.902344-7.898438-7.902344zm0 0" fill="#edd4b0"/><path d="m355 483.5c-3.585938-22.035156-7.992188-49.050781-8.277344-50.515625-3.316406-16.941406-18.847656-21.921875-18.847656-21.921875s-42.207031-12.453125-43.796875-12.921875c-2.128906 5.960937-7.429687 20.820313-10.96875 30.738281-1.167969 3.269532-5.160156 4.480469-7.949219 2.414063l-12.128906-8.992188h-23.136719l-.097656-.074219.03125.074219-12.128906 8.992188c-2.789063 2.070312-6.78125.855469-7.949219-2.414063l-10.96875-30.738281c-2.339844.691406-43.914062 12.921875-43.914062 12.921875-5.695313 2.125-16.039063 7.847656-18.847657 21.921875l-8.453125 50.480469c70.757813 37.992187 156.5625 38.054687 227.433594.035156zm0 0" fill="#f6e6cb"/><path d="m284.078125 398.140625c-2.128906 5.960937-7.433594 20.820313-10.96875 30.738281-.222656.617188-.542969 1.160156-.9375 1.621094l-9.542969 80.53125c33.179688-2.910156 64.425782-12.539062 92.371094-27.53125-3.585938-22.035156-7.992188-49.050781-8.277344-50.515625-3.316406-16.941406-18.847656-21.925781-18.847656-21.925781s-42.207031-12.449219-43.796875-12.917969zm0 0" fill="#6d6d7c"/><path d="m154.542969 411.0625s-15.53125 4.980469-18.851563 21.921875c-.285156 1.460937-4.675781 28.394531-8.257812 50.410156 27.9375 15.019531 59.175781 24.675781 92.351562 27.617188l-9.542968-80.511719c-.394532-.460938-.714844-1.003906-.933594-1.621094-3.539063-9.917968-8.398438-24.777344-10.527344-30.738281-1.589844.46875-44.238281 12.921875-44.238281 12.921875zm0 0" fill="#6d6d7c"/><path d="m154.359375 425.984375c1.855469-9.480469 7.535156-15.210937 12.179687-18.425781-6.816406 1.988281-11.996093 3.503906-11.996093 3.503906s-15.53125 4.980469-18.851563 21.921875c-.285156 1.460937-4.675781 28.394531-8.257812 50.410156 5.464844 2.9375 11.058594 5.664063 16.761718 8.179688 3.804688-23.929688 9.902344-64.265625 10.164063-65.589844zm0 0" fill="#58596c"/><path d="m267.757812 387.105469-14.726562 35.195312 12.128906 8.992188c2.789063 2.070312 6.78125.855469 7.945313-2.414063l10.96875-30.738281zm0 0" fill="#edd4b0"/><path d="m229.894531 422.300781-5.921875 4.339844-.003906.003906 8.945312 15.386719h16.753907l9.015625-15.542969-5.652344-4.1875c-13.875 0-8.933594 0-23.136719 0zm0 0" fill="#5085fe"/><path d="m259.988281 511.265625-10.320312-69.234375c-5.910157 0-10.902344 0-16.753907 0l-10.480468 69.21875c12.417968.960938 24.933594.984375 37.554687.015625zm0 0" fill="#5085fe"/><path d="m214.984375 387.105469 14.84375 35.195312-12.128906 8.992188c-2.789063 2.070312-6.78125.855469-7.949219-2.414063l-10.96875-30.738281zm0 0" fill="#edd4b0"/><path d="m293.820312 441.734375-9.742187-43.59375-16.320313-11.035156-7.011718 55.628906 15.46875 16.847656 16.3125-14.175781c1.046875-.910156 1.539062-2.304688 1.292968-3.671875zm0 0" fill="#484a5e"/><path d="m188.921875 441.734375 9.859375-43.59375 16.203125-11.035156 7.011719 55.628906-15.464844 16.847656-16.3125-14.175781c-1.046875-.910156-1.539062-2.304688-1.296875-3.671875zm0 0" fill="#484a5e"/><path d="m227.386719 116.554688-26.988281-26.988282c-5.554688-5.554687-5.554688-14.558594 0-20.113281 5.550781-5.554687 14.554687-5.554687 20.109374 0l16.933594 16.933594 32.195313-32.195313c5.550781-5.550781 14.558593-5.550781 20.109375 0 5.554687 5.554688 5.554687 14.558594 0 20.113282l-42.246094 42.25c-5.554688 5.546874-14.5625 5.550781-20.113281 0zm0 0" fill="#ffb456"/><path d="m169.007812 454.789062c-4.363281 0-7.902343 3.535157-7.902343 7.902344v35.589844c5.191406 1.832031 10.457031 3.496094 15.800781 4.976562v-40.566406c.003906-4.367187-3.535156-7.902344-7.898438-7.902344zm0 0" fill="#58596c"/><path d="m313.40625 454.789062c-4.363281 0-7.898438 3.535157-7.898438 7.902344v40.625c5.34375-1.476562 10.613282-3.132812 15.800782-4.957031v-35.667969c0-4.367187-3.539063-7.902344-7.902344-7.902344zm0 0" fill="#58596c"/><path d="m402.492188 393.234375v-12.515625c-5.378907 2.914062-11.464844 4.695312-17.941407 4.996094-7.945312.371094-15.4375-1.539063-21.910156-5.117188v12.636719l19.925781 26.773437zm0 0" fill="#f59d6b"/><path d="m378.859375 397.117188c-1.875-2.519532-2.886719-5.578126-2.886719-8.71875v-3.175782c-4.753906-.777344-9.246094-2.367187-13.332031-4.625v12.636719l19.925781 26.773437 6.667969-8.957031zm0 0" fill="#f28b51"/><path d="m420.96875 324.183594c-7.5-6.40625-10.777344-14.53125-11.960938-18.246094-.546874-1.722656-1.90625-3.121094-3.660156-3.566406-.027344-.007813-.050781-.015625-.078125-.019532-2.289062-.558593-4.660156.570313-5.882812 2.582032 0 0-17.746094 33.804687-57.925781 39.34375-.441407.0625-.777344.4375-.777344.882812 0 23.582032 19.121094 43.152344 42.699218 42.703125 22.753907-.433593 41.066407-19.011719 41.066407-41.875v-14.449219c-.003907-2.847656-1.316407-5.503906-3.480469-7.355468zm0 0" fill="#f9ae85"/><path d="m355 345.988281v-4.839843c-4.195312 1.378906-8.699219 2.460937-13.539062 3.128906-.441407.0625-.773438.4375-.773438.882812 0 23.582032 19.117188 43.152344 42.695312 42.703125 2.15625-.042969 4.273438-.25 6.339844-.605469-19.71875-3.394531-34.722656-20.578124-34.722656-41.269531zm0 0" fill="#f59d6b"/><path d="m243.976562 79.851562-6.535156 6.535157-16.933594-16.933594c-5.554687-5.554687-14.558593-5.554687-20.109374 0-5.554688 5.554687-5.554688 14.558594 0 20.113281l26.988281 26.988282c5.550781 5.550781 14.558593 5.546874 20.109375 0l17.277344-17.277344c-12.417969 5.566406-25.523438-6.585938-20.796876-19.425782zm0 0" fill="#fc974d"/><path d="m179.929688 286.621094v-8.921875c0-3.859375 4.867187-4.15625 4.867187-4.15625l-.003906-.007813c32.425781-1.285156 69.214843-14.804687 83.65625-20.386718 3.703125-1.4375 7.882812-.898438 11.464843 1.886718l19.984376 16.523438s2.679687 2.394531 2.679687 6.90625v8.429687c5.375-.46875 11.5 1.269531 14.910156 4.285157v-25.414063c0-42.035156-34.199219-76.234375-76.234375-76.234375s-76.234375 34.199219-76.234375 76.234375v25.3125c3.40625-3.054687 9.523438-4.847656 14.910157-4.457031zm0 0" fill="#8c4f25"/><path d="m179.3125 282.980469c-10.171875-.777344-19.183594 6.695312-19.183594 15.808593 0 9.074219 8.964844 16.59375 19.183594 15.8125zm0 0" fill="#f59d6b"/><path d="m303.195312 283.269531v31.039063c10.191407.945312 19.183594-6.507813 19.183594-15.519532 0-9.050781-9.042968-16.460937-19.183594-15.519531zm0 0" fill="#f59d6b"/><path d="m301.132812 269.707031-21.222656-16.519531c-3.578125-2.789062-7.757812-3.328125-11.460937-1.890625-14.441407 5.582031-52.464844 19.101563-84.890625 20.390625l.007812.007812s-4.871094.296876-4.871094 4.152344v39.289063c0 35.847656 29.714844 65.046875 65.523438 63.378906 33.171875-1.550781 59.59375-28.929687 59.59375-62.488281v-39.414063c-.003906-4.507812-2.679688-6.90625-2.679688-6.90625zm0 0" fill="#f9ae85"/><path d="m180.136719 286.621094v-8.921875c0-3.859375 4.867187-4.15625 4.867187-4.15625l-.003906-.007813c32.425781-1.285156 69.214844-14.804687 83.65625-20.386718 3.703125-1.4375 7.882812-.898438 11.464844 1.886718l19.984375 16.523438s2.679687 2.394531 2.679687 6.90625v8.429687c5.375-.46875 11.5 1.269531 14.910156 4.285157v-25.414063c0-42.035156-34.199218-76.234375-76.234374-76.234375-42.035157 0-76.234376 34.199219-76.234376 76.234375v25.3125c3.40625-3.054687 9.523438-4.847656 14.910157-4.457031zm0 0" fill="#8c4f25"/><path d="m193.679688 272.917969v-7.152344c0-37.175781 26.75-68.199219 62.007812-74.882813-4.613281-.875-9.363281-1.355468-14.226562-1.355468-42.035157 0-76.234376 34.199218-76.234376 76.238281v25.3125c3.40625-3.054687 9.523438-4.847656 14.910157-4.457031v-8.921875c0-3.855469 4.867187-4.15625 4.867187-4.15625l-.003906-.007813c2.867188-.113281 5.765625-.328125 8.679688-.617187zm0 0" fill="#773c15"/><path d="m179.523438 282.980469c-10.175782-.777344-19.1875 6.695312-19.1875 15.808593 0 9.074219 8.964843 16.59375 19.1875 15.8125zm0 0" fill="#f59d6b"/><path d="m303.402344 283.269531v31.039063c10.191406.945312 19.183594-6.507813 19.183594-15.519532 0-9.050781-9.042969-16.460937-19.183594-15.519531zm0 0" fill="#f59d6b"/><path d="m162.703125 290.988281c-1.496094 2.3125-2.367187 4.976563-2.367187 7.800781 0 9.070313 8.964843 16.589844 19.1875 15.8125v-15.601562c-7.050782.539062-13.496094-2.867188-16.820313-8.011719zm0 0" fill="#f28b51"/><path d="m303.402344 298.707031v15.601563c10.191406.945312 19.183594-6.507813 19.183594-15.519532 0-2.828124-.882813-5.496093-2.40625-7.800781-3.34375 5.058594-9.777344 8.371094-16.777344 7.71875zm0 0" fill="#f28b51"/><path d="m244.425781 376.664062c-10.542969.492188-20.558593-1.695312-29.441406-5.9375v16.378907c1.523437 3.597656-5.523437-13.035157 14.90625 35.195312h23.140625l14.726562-35.195312c0-4.371094 0-10.914063 0-16.152344-7.148437 3.316406-15.027343 5.324219-23.332031 5.710937zm0 0" fill="#f59d6b"/><path d="m234.308594 391.324219c-1.179688-2.785157-1.785156-5.777344-1.785156-8.800781v-6.457032c-6.179688-.910156-12.074219-2.730468-17.539063-5.339844v16.378907c1.523437 3.597656-5.523437-13.035157 14.90625 35.195312h17.539063c-17.984376-42.453125-11.777344-27.808593-13.121094-30.976562zm0 0" fill="#f28b51"/><path d="m301.339844 269.707031-21.21875-16.519531c-3.582032-2.789062-7.761719-3.328125-11.464844-1.890625-14.4375 5.582031-52.464844 19.101563-84.886719 20.390625l.003907.007812s-4.867188.296876-4.867188 4.152344v39.289063c0 35.847656 29.710938 65.046875 65.519531 63.378906 33.171875-1.550781 59.59375-28.929687 59.59375-62.488281v-39.414063c0-4.507812-2.679687-6.90625-2.679687-6.90625zm0 0" fill="#f9ae85"/><path d="m193.6875 315.136719v-44.195313c-3.34375.355469-6.660156.613282-9.917969.742188l.003907.011718s-4.867188.296876-4.867188 4.152344v39.289063c0 35.847656 29.710938 65.046875 65.519531 63.375 1.503907-.070313 2.984375-.210938 4.457031-.382813-31.019531-3.742187-55.195312-30.660156-55.195312-62.992187zm0 0" fill="#f59d6b"/><path d="m247.402344 422.300781c-7.109375 0-5.722656 0-17.511719 0l-5.917969 4.339844-.003906.003906 8.945312 15.386719h14.488282c-8.816406-3.605469-8.832032-16.121094 0-19.730469zm0 0" fill="#3c78ef"/><path d="m254.359375 473.519531c-4.492187 12.054688-21.5625 12.242188-26.238281.164063l-5.6875 37.5625c12.417968.964844 24.933594.988281 37.554687.019531zm0 0" fill="#3c78ef"/><path d="m260.746094 442.734375-8.527344 68.992187c8.246094-.371093 16.386719-1.152343 24.394531-2.328124l10.921875-30.960938c1.023438-2.894531.363282-6.121094-1.714844-8.382812zm0 0" fill="#58596c"/><path d="m221.996094 442.734375-25.074219 27.320313c-2.078125 2.261718-2.738281 5.488281-1.714844 8.382812l10.925781 30.980469c8.011719 1.171875 16.148438 1.949219 24.390626 2.3125zm0 0" fill="#58596c"/><path d="m395.363281 402.8125-12.796875 17.195312c6.019532 15.847657 28.800782 14.734376 33.25-1.625l1.332032-4.910156c-8.441407 9.210938-23.894532 1.816406-21.785157-10.660156zm0 0" fill="#e0c096"/></svg>